Coordinates
version=1
nRows=6
nColumns=46
inDegrees=yes

Units are S.I. units (second, meters, Newtons, ...)
Angles are in degrees.

endheader
time	pelvis_tilt	pelvis_list	pelvis_rotation	pelvis_tx	pelvis_ty	pelvis_tz	bb_angle	bb_tx	bb_ty	bb_tz	hip_flexion_r	hip_adduction_r	hip_rotation_r	knee_angle_r	knee_angle_r_beta	ankle_angle_r	subtalar_angle_r	mtp_angle_r	crank_angle_r	hip_flexion_l	hip_adduction_l	hip_rotation_l	knee_angle_l	knee_angle_l_beta	ankle_angle_l	subtalar_angle_l	mtp_angle_l	crank_angle_l	lumbar_extension	lumbar_bending	lumbar_rotation	arm_flex_r	arm_add_r	arm_rot_r	elbow_flex_r	pro_sup_r	wrist_flex_r	wrist_dev_r	arm_flex_l	arm_add_l	arm_rot_l	elbow_flex_l	pro_sup_l	wrist_flex_l	wrist_dev_l
      0.00000000	    -17.92934996	      3.89539175	      2.77286694	      0.11725615	      1.11487043	     -0.28823527	      0.00000000	      0.50000000	      0.00000000	      0.25000000	     48.24655930	    -10.31455016	     -1.96554544	     52.44633388	      0.91536121	     -1.61759726	     -6.60748403	      0.00000000	      0.00000000	     91.61926846	    -10.20586928	     -4.70435649	    102.16715267	      1.78315320	     18.80934024	      5.05652879	      0.00000000	      0.00000000	    -42.52728873	     -0.80899690	     -9.84055755	     84.97000998	     -4.75039646	     63.74525109	     20.52981909	     47.98937783	      0.00000000	      0.00000000	     79.88588618	    -21.97831595	     83.52648309	     17.28439066	     57.18795615	      0.00000000	      0.00000000
      0.00500000	    -17.92681174	      3.89548098	      2.77066503	      0.11727069	      1.11487616	     -0.28822730	      0.00000000	      0.50000000	      0.00000000	      0.25000000	     48.24249346	    -10.30937116	     -1.95738721	     52.44353621	      0.91531238	     -1.61431272	     -6.62627095	      0.00000000	      0.00000000	     91.61431754	    -10.21308109	     -4.70578583	    102.16781941	      1.78316484	     18.81358851	      5.06741481	      0.00000000	      0.00000000	    -42.53027292	     -0.81863171	     -9.80737056	     84.94244654	     -4.79492317	     63.74697834	     20.66190235	     47.41028449	      0.00000000	      0.00000000	     79.92687552	    -21.97060258	     83.63392030	     17.35810729	     57.28297982	      0.00000000	      0.00000000
      0.01000000	    -17.96951267	      3.86428619	      2.78504547	      0.11730011	      1.11482561	     -0.28827548	      0.00000000	      0.50000000	      0.00000000	      0.25000000	     48.27393608	    -10.29797807	     -1.99332074	     52.43487411	      0.91516120	     -1.62091589	     -6.62926963	      0.00000000	      0.00000000	     91.67301482	    -10.20027850	     -4.67694165	    102.17293493	      1.78325412	     18.79686548	      5.04185976	      0.00000000	      0.00000000	    -42.44858475	     -0.78554370	     -9.73437922	     84.71908905	     -4.27826742	     61.80581169	     19.99528718	     46.51087918	      0.00000000	      0.00000000	     79.51152524	    -21.35900922	     82.21295416	     16.55730709	     55.96830384	      0.00000000	      0.00000000
      0.01500000	    -17.89172825	      3.91142521	      2.77217390	      0.11731837	      1.11496466	     -0.28823891	      0.00000000	      0.50000000	      0.00000000	      0.25000000	     48.16010381	    -10.30650896	     -1.93741002	     52.39015613	      0.91438072	     -1.58640076	     -6.68073394	      0.00000000	      0.00000000	     91.57069274	    -10.22465960	     -4.73904890	    102.16018460	      1.78303159	     18.79727136	      5.07840560	      0.00000000	      0.00000000	    -42.56728355	     -0.81798701	     -9.84155539	     84.90743661	     -4.71484520	     63.65432866	     20.72357552	     46.55657836	      0.00000000	      0.00000000	     79.89304196	    -21.97689844	     83.85689518	     17.44366080	     55.94321474	      0.00000000	      0.00000000
      0.02000000	    -17.80581972	      3.85618581	      2.77746731	      0.11740385	      1.11522927	     -0.28822444	      0.00000000	      0.50000000	      0.00000000	      0.25000000	     48.02089163	    -10.25296501	     -1.97631842	     52.32982124	      0.91332768	     -1.59499810	     -6.68186141	      0.00000000	      0.00000000	     91.47336952	    -10.22369745	     -4.66391991	    102.15158770	      1.78288154	     18.90318209	      5.28448814	      0.00000000	      0.00000000	    -42.69279993	     -0.79140516	     -9.79613745	     84.77841218	     -4.77536000	     62.75116023	     21.10772370	     46.36946960	      0.00000000	      0.00000000	     79.83549571	    -21.84098021	     83.45178170	     17.41038973	     55.53692960	      0.00000000	      0.00000000
      0.02500000	    -17.94521454	      3.91834271	      2.80568986	      0.11740963	      1.11497676	     -0.28833403	      0.00000000	      0.50000000	      0.00000000	      0.25000000	     48.19635415	    -10.33985690	     -1.95439309	     52.37736303	      0.91415744	     -1.52263719	     -6.58076601	      0.00000000	      0.00000000	     91.61121880	    -10.17756607	     -4.74233684	    102.14052773	      1.78268851	     18.76625378	      5.08964371	      0.00000000	      0.00000000	    -42.49691805	     -0.80402902	     -9.97427140	     84.74433927	     -4.35132949	     62.61644477	     20.56999914	     45.86748962	      0.00000000	      0.00000000	     79.69469712	    -22.01099717	     83.91408972	     17.58135229	     53.67494520	      0.00000000	      0.00000000
